<svg xmlns="http://www.w3.org/2000/svg" viewBox="0 0 800 600" width="800" height="600">
    <style>
        .st0{fill:#F5F7FA;}
        .st1{fill:#4285F4;}
        .st2{fill:#34A853;}
        .st3{fill:#EA4335;}
        .st4{fill:#FBBC05;}
        .st5{fill:#FFFFFF;}
    </style>
    <rect class="st0" width="800" height="600" />
    <circle class="st1" cx="400" cy="300" r="150" />
    <circle class="st5" cx="400" cy="300" r="120" />

    <!-- People icons -->
    <circle class="st1" cx="315" cy="230" r="40" />
    <circle class="st2" cx="485" cy="230" r="40" />
    <circle class="st3" cx="315" cy="370" r="40" />
    <circle class="st4" cx="485" cy="370" r="40" />

    <!-- Connection lines -->
    <line x1="315" y1="230" x2="485" y2="230" style="stroke:#C4C4C4;stroke-width:5" />
    <line x1="315" y1="230" x2="315" y2="370" style="stroke:#C4C4C4;stroke-width:5" />
    <line x1="315" y1="370" x2="485" y2="370" style="stroke:#C4C4C4;stroke-width:5" />
    <line x1="485" y1="230" x2="485" y2="370" style="stroke:#C4C4C4;stroke-width:5" />
    <line x1="315" y1="230" x2="485" y2="370" style="stroke:#C4C4C4;stroke-width:5" />
    <line x1="485" y1="230" x2="315" y2="370" style="stroke:#C4C4C4;stroke-width:5" />

    <!-- Document icon -->
    <rect x="375" y="275" width="50" height="70" rx="5" fill="#FFFFFF" stroke="#C4C4C4"
        stroke-width="2" />
    <line x1="385" y1="290" x2="415" y2="290" style="stroke:#C4C4C4;stroke-width:2" />
    <line x1="385" y1="305" x2="415" y2="305" style="stroke:#C4C4C4;stroke-width:2" />
    <line x1="385" y1="320" x2="415" y2="320" style="stroke:#C4C4C4;stroke-width:2" />
</svg>